<?xml version="1.0" standalone="no"?><!DOCTYPE svg PUBLIC "-//W3C//DTD SVG 1.1//EN" "http://www.w3.org/Graphics/SVG/1.1/DTD/svg11.dtd"><svg t="1542175884739" class="icon" style="" viewBox="0 0 1024 1024" version="1.1" xmlns="http://www.w3.org/2000/svg" p-id="3849" xmlns:xlink="http://www.w3.org/1999/xlink" width="32" height="32"><defs><style type="text/css"></style></defs><path d="M517.12 0c-236.544 0-429.056 181.248-429.056 404.48 0 86.016 28.672 164.864 75.776 230.4 2.048 4.096 4.096 7.168 7.168 11.264L463.872 993.28c14.336 18.432 33.792 26.624 53.248 26.624s38.912-8.192 53.248-26.624l291.84-347.136c3.072-3.072 5.12-7.168 7.168-10.24 48.128-65.536 76.8-144.384 76.8-230.4 0-224.256-192.512-405.504-429.056-405.504z m0 566.272c-94.208 0-171.008-72.704-171.008-161.792 0-89.088 76.8-161.792 171.008-161.792s171.008 72.704 171.008 161.792c1.024 90.112-75.776 161.792-171.008 161.792z" fill="#1296db" p-id="3850"></path></svg>