<?xml version="1.0" standalone="no"?><!DOCTYPE svg PUBLIC "-//W3C//DTD SVG 1.1//EN" "http://www.w3.org/Graphics/SVG/1.1/DTD/svg11.dtd"><svg t="1543204331399" class="icon" style="" viewBox="0 0 1024 1024" version="1.1" xmlns="http://www.w3.org/2000/svg" p-id="2750" xmlns:xlink="http://www.w3.org/1999/xlink" width="48" height="48"><defs><style type="text/css"></style></defs><path d="M465.31223387 819.24267639c0-25.69467221 20.88375488-46.57842708 46.57842712-46.46908811 25.69467221 0 46.46908808 20.88375488 46.46908804 46.57842713s-20.88375488 46.57842708-46.57842711 46.57842708c-25.5853332-0.10933901-46.46908808-20.99309388-46.46908805-46.6877661zM320.21934009 169.76883381h383.4519808c22.74251838 0 40.89279751 18.25961812 40.89279749 41.00213653V657.42091086c0 22.74251838-18.25961812 40.89279751-40.89279749 40.89279752H320.21934009c-10.82456403 0-21.32111099-4.26422221-28.97484316-11.91795432s-12.0272934-18.15027911-11.91795434-28.9748432V210.77097034c-0.10933901-22.74251838 18.15027911-40.89279751 40.8927975-41.00213653zM164.30188226 884.40873869c0 19.68102551 7.87241024 38.70601685 21.86780616 52.5920738 13.99539596 13.99539596 32.91104824 21.7584671 52.5920738 21.75846708h546.25779751c19.79036455 0 38.70601685-7.7630712 52.5920738-21.75846708 13.99539596-13.99539596 21.7584671-32.91104824 21.86780614-52.5920738V128.22000214c0-41.11147555-33.34840436-74.35054089-74.45987994-74.35054093H238.76176222c-19.79036455 0-38.70601685 7.87241024-52.5920738 21.75846712-13.99539596 13.99539596-21.86780616 32.91104824-21.86780616 52.59207381v756.18873655z m0 0" fill="#2B9CFE" p-id="2751"></path></svg>