<?xml version="1.0" standalone="no"?><!DOCTYPE svg PUBLIC "-//W3C//DTD SVG 1.1//EN" "http://www.w3.org/Graphics/SVG/1.1/DTD/svg11.dtd"><svg t="1545976398588" class="icon" style="" viewBox="0 0 1024 1024" version="1.1" xmlns="http://www.w3.org/2000/svg" p-id="2218" xmlns:xlink="http://www.w3.org/1999/xlink" width="32" height="32"><defs><style type="text/css"></style></defs><path d="M878.790676 783.536754l-192.010417-192.010417c75.010943-116.999474 61.506698-274.730133-40.676621-376.913253-117.874281-117.874281-309.611284-117.874281-427.485565 0s-117.874281 309.611284 0 427.485565c102.18312 102.18312 259.968541 115.742127 376.913253 40.676621l192.06518 192.06498c22.415802 22.415802 58.718589 22.415802 81.079628 0l10.169105-10.169105C901.261041 842.309906 901.261041 806.007319 878.790676 783.536754zM284.498806 576.163353c-81.516932-81.516932-81.516932-214.152804 0-295.724499 81.462369-81.516932 214.152804-81.516932 295.669736 0 81.462169 81.516932 81.462169 214.152804 0 295.615173C498.706373 657.680285 366.015737 657.680285 284.498806 576.163353z" p-id="2219"></path></svg>