<?xml version="1.0" standalone="no"?><!DOCTYPE svg PUBLIC "-//W3C//DTD SVG 1.1//EN" "http://www.w3.org/Graphics/SVG/1.1/DTD/svg11.dtd"><svg t="1542175909849" class="icon" style="" viewBox="0 0 1024 1024" version="1.1" xmlns="http://www.w3.org/2000/svg" p-id="4615" xmlns:xlink="http://www.w3.org/1999/xlink" width="32" height="32"><defs><style type="text/css"></style></defs><path d="M444.440813 576.119343C356.81101 493.878271 273.054421 398.6013 313.217143 360.940562c57.368592-53.930283 107.379613-87.126336 5.698792-205.991538-101.68082-118.861108-169.506579-27.580149-225.158063 24.680099-64.12139 60.265572-3.374864 284.904819 233.066173 506.9858 236.4482 221.991953 475.710492 279.136441 539.885094 218.826867 55.650461-52.215222 152.792918-115.853611 26.281573-211.388455-126.519532-95.542007-161.928996-48.578392-219.35694 5.345752C633.47719 736.955448 532.071639 658.358369 444.440813 576.119343L444.440813 576.119343 444.440813 576.119343 444.440813 576.119343zM444.440813 576.119343" p-id="4616" fill="#1296db"></path></svg>