<?xml version="1.0" standalone="no"?><!DOCTYPE svg PUBLIC "-//W3C//DTD SVG 1.1//EN" "http://www.w3.org/Graphics/SVG/1.1/DTD/svg11.dtd"><svg t="1545188295849" class="icon" style="" viewBox="0 0 1024 1024" version="1.1" xmlns="http://www.w3.org/2000/svg" p-id="4408" xmlns:xlink="http://www.w3.org/1999/xlink" width="20" height="20"><defs><style type="text/css"></style></defs><path d="M512 1024C229.2224 1024 0 794.7776 0 512S229.2224 0 512 0s512 229.2224 512 512-229.2224 512-512 512z m0-998.4C243.3792 25.6 25.6 243.3792 25.6 512s217.7792 486.4 486.4 486.4 486.4-217.7792 486.4-486.4S780.6208 25.6 512 25.6z" fill="" p-id="4409"></path><path d="M512 1024C229.2224 1024 0 794.7776 0 512S229.2224 0 512 0s512 229.2224 512 512-229.2224 512-512 512z m0-998.4C243.3792 25.6 25.6 243.3792 25.6 512s217.7792 486.4 486.4 486.4 486.4-217.7792 486.4-486.4S780.6208 25.6 512 25.6z" fill="" p-id="4410"></path><path d="M464.5376 753.4848c-46.6176-67.8656-71.6288-142.2848-75.4944-224.2048H253.6448c-1.5616 0-3.1488 0.1024-4.736 0.1536-10.0096 0.384-17.9456-6.5536-18.4064-16.64a174.0032 174.0032 0 0 1 0.4608-19.328c3.5072-51.3536 19.4048-98.56 48.8704-140.7744 44.8768-64.2304 106.0608-104.2432 183.2704-117.9136a280.9344 280.9344 0 0 1 311.1424 175.1552c2.816 7.2704 2.2784 13.9008-3.0464 19.6608a16.6656 16.6656 0 0 1-18.3296 4.7616c-5.5808-1.7408-9.1392-5.6832-11.2384-11.1104a239.744 239.744 0 0 0-32.384-58.496c-37.7088-49.6128-86.9888-81.152-147.9936-94.1824-0.4608-0.1024-0.9472-0.128-1.8944-0.2304 46.4384 67.5072 71.6032 141.8496 75.4944 223.8208h135.8336c2.432 0 4.8896-0.0768 7.296 0.2816 9.5744 1.4336 15.5648 8.6016 15.5904 18.4832 0.2048 118.7584-76.1856 225.6896-189.3632 265.088-142.3872 49.5872-299.8272-23.1424-354.3552-163.6864-4.8384-12.4928 1.4848-24.0128 14.0544-25.6 7.9104-0.9984 15.232 3.7888 18.56 12.288a237.2352 237.2352 0 0 0 26.112 49.536c37.504 53.8368 88.2432 88.1152 152.3456 102.4256 0.9472 0.2048 1.8944 0.2816 3.6096 0.512z m47.36 4.224a385.0752 385.0752 0 0 0 70.5536-130.2784 378.368 378.368 0 0 0 17.0752-97.8688h-175.2576c4.5824 85.6064 33.7408 161.3824 87.6288 228.1472z m0.1536-491.52a385.2288 385.2288 0 0 0-87.6032 227.7632h175.2064c-4.6592-85.4272-33.7664-161.0496-87.6032-227.7632z m48.128 486.9888c58.0864-11.8272 106.0352-40.5248 143.36-86.4256 32.4864-39.9616 50.2528-85.8624 54.2464-137.2928H634.88c-3.7888 81.664-28.8 156.0576-74.7008 223.7184z m-95.6672-482.7392c-114.3808 21.248-193.3824 122.88-197.8112 223.4368h122.368c3.968-81.6896 29.056-156.0064 75.4432-223.4368z" fill="" p-id="4411"></path></svg>