<?xml version="1.0" standalone="no"?><!DOCTYPE svg PUBLIC "-//W3C//DTD SVG 1.1//EN" "http://www.w3.org/Graphics/SVG/1.1/DTD/svg11.dtd"><svg t="1545188240866" class="icon" style="" viewBox="0 0 1024 1024" version="1.1" xmlns="http://www.w3.org/2000/svg" p-id="4053" xmlns:xlink="http://www.w3.org/1999/xlink" width="20" height="20"><defs><style type="text/css"></style></defs><path d="M704 64a96 96 0 0 1 96 96v704a96 96 0 0 1-96 96H320a96 96 0 0 1-96-96V160a96 96 0 0 1 96-96z m0 64H320a32 32 0 0 0-32 32v704a32 32 0 0 0 32 32h384a32 32 0 0 0 32-32V160a32 32 0 0 0-32-32z" p-id="4054"></path><path d="M480 832a32 32 0 0 1 0-64h64a32 32 0 0 1 0 64zM288 256a32 32 0 0 1 0-64h448a32 32 0 0 1 0 64z" p-id="4055"></path></svg>