<?xml version="1.0" standalone="no"?><!DOCTYPE svg PUBLIC "-//W3C//DTD SVG 1.1//EN" "http://www.w3.org/Graphics/SVG/1.1/DTD/svg11.dtd"><svg t="1545188287153" class="icon" style="" viewBox="0 0 1024 1024" version="1.1" xmlns="http://www.w3.org/2000/svg" p-id="4291" xmlns:xlink="http://www.w3.org/1999/xlink" width="20" height="20"><defs><style type="text/css"></style></defs><path d="M781.85984 387.15392c-33.11104-63.2832-90.56768-114.1248-158.69952-140.26752-32.64-12.77952-67.6608-19.4304-102.74304-21.01248h-20.26496c-39.30112 1.7152-78.39744 9.94304-114.304 25.74848-54.19008 23.4496-100.90496 62.6944-132.72576 111.22688-29.98784 45.44-46.37696 98.97984-47.4624 152.7808v10.54208c0.74752 29.04064 5.50912 57.94816 14.75584 85.61152 12.6464 37.99552 33.45408 73.42592 60.65152 103.38816 38.69184 42.93632 90.43456 74.6752 147.14368 89.89184 23.38816 6.45632 47.6672 9.61024 71.94112 10.86464h20.26496c18.49344-1.12128 37.05856-2.89792 55.14752-6.85056 44.67712-9.41568 87.03488-28.84608 122.94144-56.23296 35.01568-26.74176 64.0512-60.98432 83.97312-99.64032 20.53632-39.24992 31.34464-83.0464 32.36352-126.96576v-10.60352c-0.8192-44.5184-11.96544-88.84224-32.98304-128.48128z m-11.28448 112.73728h-84.72576a462.53568 462.53568 0 0 0-23.12192-117.41696 387.9168 387.9168 0 0 0 48.01024-23.51104 250.2144 250.2144 0 0 1 32.29696 47.27808c15.4368 29.05088 24.68352 61.12256 27.54048 93.64992zM627.85024 643.584a498.688 498.688 0 0 0-14.208-4.1472c-26.58816-7.31648-53.9904-11.33056-81.53088-13.24032v-84.16256h111.04256c-0.07168 3.0976-0.2048 6.1952-0.33792 9.28768a426.1632 426.1632 0 0 1-14.96576 92.2624z m-61.47072 124.32896c-11.28448 2.44224-22.77888 3.95264-34.26816 4.9408v-104.37632c23.59296 1.71008 47.0528 5.26336 69.8368 11.52512 4.21376 1.11616 8.42752 2.36544 12.57472 3.61984a423.74144 423.74144 0 0 1-43.4432 83.1744c-1.57184 0.4608-3.13344 0.7936-4.70016 1.11616zM455.07072 273.8176a289.8944 289.8944 0 0 1 33.52064-4.9408v99.70688c-22.77888-1.78176-45.41952-5.26848-67.38432-11.32544-2.03776-0.52736-4.07552-1.12128-6.1184-1.7152a426.10688 426.10688 0 0 1 39.98208-81.72544z m151.22432 83.24096c-6.528 1.77664-13.056 3.35872-19.65056 4.74112-17.88416 3.88608-36.24448 5.9904-54.53312 7.2448V268.94336c7.88992 0.66048 15.70816 1.71008 23.53152 3.03104a431.5136 431.5136 0 0 1 50.65216 85.08416zM409.4464 397.88544c25.76896 7.11168 52.35712 11.13088 79.14496 13.03552v88.97024h-98.8672a423.0656 423.0656 0 0 1 12.91776-103.91552c2.24768 0.65536 4.5568 1.31584 6.80448 1.90976z m79.14496 144.14848v84.22912c-20.66944 1.44896-41.27232 3.75296-61.4656 8.1664-4.82816 0.98816-9.58976 2.10432-14.4128 3.35872a422.7584 422.7584 0 0 1-20.94592-95.68256h96.82944v-0.07168z m-52.15232 133.48864c17.13664-3.75296 34.6112-5.80096 52.15232-7.04512v103.7824a435.48672 435.48672 0 0 1-59.97056-94.96064c2.65216-0.5888 5.23264-1.1776 7.81824-1.77664z m-10.53696 84.75136a262.59456 262.59456 0 0 1-86.62528-48.32768 346.85952 346.85952 0 0 1 47.52896-22.00064 478.6944 478.6944 0 0 0 39.09632 70.32832z m106.20928-260.38272V411.25376c21.48864-1.44896 42.9056-3.75296 63.85152-8.29952a425.58464 425.58464 0 0 0 25.7024-6.3232 423.94112 423.94112 0 0 1 20.53632 103.26016h-110.09024z m146.87232-171.8784a342.8352 342.8352 0 0 1-31.62112 14.94528 456.52992 456.52992 0 0 0-26.38336-51.03616 258.62656 258.62656 0 0 1 58.00448 36.09088z m-284.97408-33.45408a461.2096 461.2096 0 0 0-19.7888 46.3616 352.91136 352.91136 0 0 1-30.18752-14.81728 260.9664 260.9664 0 0 1 49.97632-31.54432z m-104.09984 90.88a253.38368 253.38368 0 0 1 22.03136-28.84096 389.98016 389.98016 0 0 0 49.57184 24.89344 463.14496 463.14496 0 0 0-15.29856 118.4H250.13248c3.5328-40.4992 17.13152-80.14336 39.77728-114.45248z m-28.01664 213.36576c-6.18496-18.44224-9.99424-37.53984-11.69408-56.832h97.91488a461.82912 461.82912 0 0 0 23.18848 108.59008 386.42688 386.42688 0 0 0-63.104 30.22336 249.27744 249.27744 0 0 1-46.30528-81.98144z m373.36576 144.21504a455.8336 455.8336 0 0 0 19.7888-43.8528 345.88672 345.88672 0 0 1 25.2928 12.77952h1.01888a279.5008 279.5008 0 0 1-9.65632 7.76704 259.7376 259.7376 0 0 1-36.44416 23.30624z m76.90752-61.76768a396.9024 396.9024 0 0 0-43.51488-22.4512 464.93696 464.93696 0 0 0 17.54112-105.4976c0.2048-3.74784 0.33792-7.57248 0.4096-11.32544h83.90656c-2.85696 32.00512-11.76064 63.54432-26.78784 92.25728a245.82656 245.82656 0 0 1-31.55456 47.01696z" p-id="4292"></path></svg>