<?xml version="1.0" standalone="no"?><!DOCTYPE svg PUBLIC "-//W3C//DTD SVG 1.1//EN" "http://www.w3.org/Graphics/SVG/1.1/DTD/svg11.dtd"><svg t="1545291694401" class="icon" style="" viewBox="0 0 1024 1024" version="1.1" xmlns="http://www.w3.org/2000/svg" p-id="5949" xmlns:xlink="http://www.w3.org/1999/xlink" width="32" height="32"><defs><style type="text/css"></style></defs><path d="M676.155199 367.576703c0-81.740676-66.580394-147.997706-148.71095-147.997706-82.129532 0-148.705833 66.258053-148.705833 147.997706 0 81.736583 66.575278 147.992589 148.705833 147.992589C609.573781 515.568269 676.155199 449.313286 676.155199 367.576703L676.155199 367.576703zM411.779949 367.576703c0-63.563688 51.782364-115.110691 115.6643-115.110691 63.880913 0 115.663276 51.548026 115.663276 115.110691 0 63.570851-51.783387 115.103528-115.663276 115.103528C463.561289 482.680231 411.779949 431.147554 411.779949 367.576703L411.779949 367.576703zM791.820522 367.576703c0-145.30027-118.357642-263.104303-264.376273-263.104303-146.020678 0-264.377296 117.804033-264.377296 263.104303 0 145.292084 264.377296 460.423321 264.377296 460.423321S791.820522 512.868787 791.820522 367.576703L791.820522 367.576703zM527.443225 137.353274c127.753639 0 231.334739 103.068424 231.334739 230.222405 0 127.149888-231.334739 411.098939-231.334739 411.098939S296.11565 494.718405 296.11565 367.576703C296.11565 240.421698 399.695726 137.353274 527.443225 137.353274L527.443225 137.353274zM644.311956 722.598462c-7.234775 9.878998-14.298658 19.358907-21.084201 28.352745 70.555939 8.087189 119.024837 24.831548 119.024837 44.162826 0 27.237341-96.176456 49.331545-214.810391 49.331545-118.633934 0-214.802204-22.094204-214.802204-49.331545 0-19.333324 48.460712-36.075637 119.014604-44.162826-6.78452-8.993838-13.845333-18.473747-21.076014-28.352745-77.959559 13.847379-130.98831 41.12463-130.98831 72.516594 0 45.416376 110.967324 82.21856 247.851924 82.21856 136.883577 0 247.851924-36.802184 247.851924-82.21856 0-31.392988-53.029774-58.669214-130.987287-72.516594L644.311956 722.598462z" p-id="5950" fill="#ffffff"></path></svg>