<?xml version="1.0" standalone="no"?><!DOCTYPE svg PUBLIC "-//W3C//DTD SVG 1.1//EN" "http://www.w3.org/Graphics/SVG/1.1/DTD/svg11.dtd"><svg t="1545291710770" class="icon" style="" viewBox="0 0 1024 1024" version="1.1" xmlns="http://www.w3.org/2000/svg" p-id="6748" xmlns:xlink="http://www.w3.org/1999/xlink" width="32" height="32"><defs><style type="text/css"></style></defs><path d="M279.17635 108.342544c42.188868 55.29435 84.885296 109.888759 126.621863 165.209716 0.696872 0.705058 1.175779 1.410116 1.873673 2.116197 6.099928 8.556886 10.085706 17.10968 12.655228 26.835182 2.833535 10.451026 3.288906 21.36561 1.89721 32.521694-1.415232 11.398608-5.403057 21.826098-10.807137 30.842449-0.455371 0.487094-0.696872 0.949628-1.39272 1.919722-5.163603 8.28878-11.742439 15.655562-20.409842 21.826098-0.696872 0.952698-1.394766 1.436722-1.63422 1.436722-20.86726 15.195074-41.278125 30.382984-61.906955 45.574988-3.986801 9.017374-8.452509 28.951379 8.428973 53.400211 27.206642 39.402405 57.704237 75.717496 90.5319 109.672842h0.455371c33.305547 33.93181 69.422116 64.799842 107.866706 91.85401 24.396643 17.084097 44.088124 12.808724 53.000098 8.771781 15.488763-21.826098 30.977525-43.433208 46.441729-64.311724 6.578836-9.261944 14.312984-16.626679 23.462364-22.315239 9.123798-5.713119 19.207457-9.261944 30.473036-10.696619 0.239454-0.24457 0.694825-0.24457 0.936325-0.244571 11.021008-1.407046 21.104667-0.457418 31.43392 1.922793 0.455371 0.218988 0.936325 0.218988 1.632173 0.460488 9.628288 2.843768 18.539238 7.607258 26.966165 14.245445 54.417377 42.485627 108.593254 85.460394 163.220408 127.949091 0.696872 0.705058 1.418302 1.189082 2.354628 2.599197 8.425903 6.877641 15.007809 14.947434 19.689435 24.454972 5.163603 10.66899 8.213056 22.070668 8.668426 34.174334 0.721431 11.884678-1.150196 23.74889-5.617951 34.418904-4.465708 10.69662-11.021008 20.900006-19.930934 28.727275-10.323113 10.209526-23.460318 20.662599-38.925545 29.897937-0.478907 0.24457-1.415232 0.730641-1.873674 0.73064a243.886613 243.886613 0 0 1-53.477982 24.672936c-89.809445 30.160927-185.263447 24.694425-277.188066-6.177699-97.085152-32.982182-190.402491-94.235245-267.101337-171.36081-76.67531-77.633125-137.189545-172.331927-169.537278-270.362614-30.496571-92.823082-35.660174-190.150758-6.099928-280.812617 7.036253-21.848611 15.947204-40.346917 25.309432-55.778374v-0.24457c8.909927-15.898085 19.237133-28.705785 29.081339-39.645952 8.213056-9.258874 17.844413-15.652492 28.625967-19.686365 0.696872-0.949628 1.873674-0.949628 2.807953-1.434675 9.605775-3.330862 20.412912-5.228071 31.433919-4.278444 29.057803 0.947582 40.078811 10.45205 60.035328 31.114649z m74.560137 206.021213c-42.215474-54.833863-84.429925-109.890806-126.621863-164.970262v-0.242523c-1.175779-1.410116-2.352581-2.602268-3.770883-3.551896-0.457418 0-0.934279-0.481977-0.934279-0.944512-1.873674-0.490164-4.228301-1.192152-6.101974-1.192152-2.113127 0-3.745301 0-5.617952 0.487094 0 0.215918-0.694825 0.215918-0.934278 0.215918-1.873674 1.434675-3.291976 2.384303-5.163603 4.035919-7.039323 7.364735-14.07353 17.089214-21.109784 28.487822-7.275707 11.864212-13.589506 26.349111-18.994609 42.025139-25.094538 76.66303-20.387329 159.039179 5.860474 239.251035 29.560246 88.087221 84.188424 173.279508 153.853064 243.792469 69.880557 70.978565 154.071028 126.031415 241.072521 155.952888 79.245855 26.346041 160.387897 31.329543 235.667417 6.170537 15.705704-5.222955 29.322839-11.881608 40.560788-19.001773 0.478907 0 0.960885-0.218988 1.418302-0.708128 11.717879-6.877641 21.104667-14.000875 28.141944-21.607111 1.63422-1.166569 3.052522-3.063779 3.747347-4.253883v-0.484024c0.936325-1.654686 0.936325-4.033873 0.936326-6.638188 0-2.139733-0.458441-4.278443-1.39272-6.172583v-0.24457c-0.721431-0.944512-1.657756-2.379187-2.833535-3.546779-0.458441 0-0.936325-0.484024-1.394766-0.970094-54.41533-42.949184-108.804055-85.923952-163.218362-128.412649h0.481977-0.481977c-1.418302-0.705058-2.809999-1.65264-4.226255-2.139733 0 0-0.455371-0.462534-0.936325-0.462534-1.39272-0.487094-3.505847-0.947582-5.617951-0.487094a15.902178 15.902178 0 0 0-5.644557 2.384304c-1.39272 0.487094-3.049452 1.89721-4.202719 3.791349-16.881482 23.25975-33.785477 46.52257-50.188052 69.320808-2.352581 3.794419-6.096858 7.582699-10.781554 9.967003 0 0-58.159608 42.246173-129.455398-7.825223-42.672892-30.166043-82.078367-63.61383-117.498064-99.464339-35.397185-36.313044-68.464301-75.715449-97.783047-118.690216-49.710169-71.923076-8.428973-131.035382-8.428973-131.035382 2.329045-4.033873 5.139044-7.585769 9.123798-9.967002 22.286586-16.600073 44.809555-33.226752 67.308989-49.608861 0.696872-0.705058 1.63422-1.410116 2.35565-1.89414 1.39272-1.192152 2.807952-2.139733 3.288906-3.548826 0.455371-0.24457 0.455371-0.729617 0.693802-0.729617 0.939395-1.654686 1.394766-3.548826 2.116197-5.68856 0-2.139733 0-4.520967-0.481977-5.931082-0.455371-1.65264-0.936325-2.843768-1.873674-4.278444-0.457418-0.463558-0.457418-0.706081-0.938371-1.190105z" p-id="6749" fill="#ffffff"></path></svg>